<svg width="40" height="42" viewBox="0 0 40 42" fill="none" xmlns="http://www.w3.org/2000/svg">
<path opacity="0.3" d="M30.0002 16V26.6905L20.001 32.0341V21.3469L30.0002 16Z" fill="#002582"/>
<path opacity="0.5" d="M20.0028 20.9968V31.684L10 26.3404V15.6499L20.0028 20.9968Z" fill="#002582"/>
<path opacity="0.05" d="M30.0019 15.6495L20.0028 20.9964L10 15.6495L20.0028 10.3059L30.0019 15.6495Z" fill="#002582"/>
<path opacity="0.85" d="M40.0002 11.7342V21.0101L30.001 15.6533L39.6423 10.4985C39.8783 10.8736 40.0018 11.3002 40.0002 11.7342Z" fill="#002582"/>
<path opacity="0.8" d="M40.0002 20.9966V30.2725C40.0013 30.7054 39.8778 31.1308 39.6423 31.5049L30.001 26.3402L40.0002 20.9966Z" fill="#002582"/>
<path opacity="0.95" d="M40.0002 20.9967L30.001 26.3403V15.6531L40.0002 20.9967Z" fill="#002582"/>
<path opacity="0.5" d="M19.998 31.6839L30.0008 26.3403V37.0308L19.998 31.6839Z" fill="#002582"/>
<path opacity="0.65" d="M30.0008 4.96289V15.6534L19.998 10.3065L30.0008 4.96289Z" fill="#002582"/>
<path opacity="0.5" d="M30.0002 4.96924L20.001 10.3062V0C20.4625 0.00275529 20.9152 0.116945 21.3144 0.331283L30.0002 4.96924Z" fill="#002582"/>
<path opacity="0.6" d="M30.0002 37.031L21.3323 41.669L21.2571 41.7087C20.8708 41.9002 20.4393 42.0004 20.001 42.0002V31.6841L30.0002 37.031Z" fill="#002582"/>
<path opacity="0.7" d="M39.6423 10.4984L30.001 15.6531V4.96924L38.6688 9.6072C39.0712 9.82124 39.4066 10.1283 39.6423 10.4984Z" fill="#002582"/>
<path opacity="0.6" d="M39.6423 31.4918C39.4105 31.868 39.0744 32.1802 38.6688 32.3962L30.001 37.0341V26.3403L39.6423 31.4918Z" fill="#002582"/>
<path opacity="0.9" d="M9.99918 26.3405L0.35788 31.4919C0.123939 31.1173 0.000519449 30.6923 0 30.2596L0 20.9836L9.99918 26.3405Z" fill="#002582"/>
<path opacity="0.8" d="M9.99918 15.6531L0 20.9967V11.7208C5.97908e-05 11.287 0.123489 10.8608 0.35788 10.4851L9.99918 15.6531Z" fill="#002582"/>
<path opacity="0.85" d="M0 20.9967L9.99918 15.6531V26.3403L0 20.9967Z" fill="#002582"/>
<path opacity="0.5" d="M19.9992 10.3065L10 15.6534V4.96289L19.9992 10.3065Z" fill="#002582"/>
<path opacity="0.65" d="M10 37.0308V26.3403L19.9992 31.6839L10 37.0308Z" fill="#002582"/>
<path opacity="0.7" d="M20.0028 31.6841V41.9936C19.5644 41.9946 19.1326 41.8944 18.7466 41.7021L18.6679 41.6623L10 37.0244L20.0028 31.6841Z" fill="#002582"/>
<path opacity="0.43" d="M20.0028 0V10.3062L10 4.96924L18.6679 0.331283H18.6858C19.0861 0.116532 19.5401 0.00233228 20.0028 0Z" fill="#002582"/>
<path opacity="0.7" d="M9.9997 26.3403V37.0308L1.33541 32.3929C0.929169 32.178 0.59197 31.867 0.358398 31.4918L9.9997 26.3403Z" fill="#002582"/>
<path opacity="0.7" d="M9.9997 4.96924V15.6531L0.358398 10.4984C0.595457 10.1282 0.93206 9.82115 1.33541 9.6072L9.9997 4.96924Z" fill="#002582"/>
</svg>
