<svg width="39" height="39" viewBox="0 0 39 39" fill="none" xmlns="http://www.w3.org/2000/svg">
<path d="M19.8672 9.63892C25.1736 9.63892 29.5535 14.0188 29.5535 19.3252C29.5535 24.7158 25.1736 29.0115 19.8672 29.0115C14.4766 29.0115 10.1809 24.7158 10.1809 19.3252C10.1809 14.0188 14.4766 9.63892 19.8672 9.63892ZM19.8672 25.6423C23.3206 25.6423 26.1001 22.8628 26.1001 19.3252C26.1001 15.8718 23.3206 13.0923 19.8672 13.0923C16.3296 13.0923 13.55 15.8718 13.55 19.3252C13.55 22.8628 16.4138 25.6423 19.8672 25.6423ZM32.1646 9.302C32.1646 10.5654 31.1538 11.5762 29.8904 11.5762C28.627 11.5762 27.6162 10.5654 27.6162 9.302C27.6162 8.03857 28.627 7.02783 29.8904 7.02783C31.1538 7.02783 32.1646 8.03857 32.1646 9.302ZM38.5659 11.5762C38.7344 14.6926 38.7344 24.042 38.5659 27.1584C38.3975 30.1907 37.7236 32.8018 35.5337 35.0759C33.3438 37.2659 30.6484 37.9397 27.6162 38.1082C24.4998 38.2766 15.1504 38.2766 12.0339 38.1082C9.00171 37.9397 6.39062 37.2659 4.11646 35.0759C1.92651 32.8018 1.25269 30.1907 1.08423 27.1584C0.915771 24.042 0.915771 14.6926 1.08423 11.5762C1.25269 8.54395 1.92651 5.84863 4.11646 3.65869C6.39062 1.46875 9.00171 0.794922 12.0339 0.626465C15.1504 0.458008 24.4998 0.458008 27.6162 0.626465C30.6484 0.794922 33.3438 1.46875 35.5337 3.65869C37.7236 5.84863 38.3975 8.54395 38.5659 11.5762ZM34.5229 30.4434C35.5337 28.0007 35.281 22.1047 35.281 19.3252C35.281 16.6299 35.5337 10.7339 34.5229 8.20703C33.8491 6.60669 32.5857 5.25903 30.9854 4.66943C28.4585 3.65869 22.5625 3.91138 19.8672 3.91138C17.0876 3.91138 11.1917 3.65869 8.74902 4.66943C7.06445 5.34326 5.80103 6.60669 5.1272 8.20703C4.11646 10.7339 4.36914 16.6299 4.36914 19.3252C4.36914 22.1047 4.11646 28.0007 5.1272 30.4434C5.80103 32.1279 7.06445 33.3914 8.74902 34.0652C11.1917 35.0759 17.0876 34.8232 19.8672 34.8232C22.5625 34.8232 28.4585 35.0759 30.9854 34.0652C32.5857 33.3914 33.9333 32.1279 34.5229 30.4434Z" fill="#002582"/>
</svg>
