<svg width="42" height="43" viewBox="0 0 42 43" fill="none" xmlns="http://www.w3.org/2000/svg">
<path d="M20.8887 0.436523C32.428 0.436523 41.7773 9.78589 41.7773 21.3252C41.7773 32.8645 32.428 42.2139 20.8887 42.2139C9.34937 42.2139 0 32.8645 0 21.3252C0 9.78589 9.34937 0.436523 20.8887 0.436523ZM31.0803 14.7554C31.4172 13.4077 30.575 12.8181 29.6484 13.155L9.51782 20.9041C8.17017 21.4094 8.17017 22.2517 9.26514 22.5886L14.4031 24.189L26.3635 16.6084C26.9531 16.2715 27.4585 16.5242 27.0374 16.8611L17.3511 25.6208L17.0142 30.9272C17.5195 30.9272 17.7722 30.6746 18.0249 30.4219L20.5518 27.9792L25.7739 31.8538C26.7847 32.3591 27.4585 32.1064 27.7112 30.9272L31.0803 14.7554Z" fill="#002582"/>
</svg>
