<svg width="116" height="92" viewBox="0 0 116 92" fill="none" xmlns="http://www.w3.org/2000/svg">
<rect width="116" height="92.0066" rx="40" fill="white"/>
<path fill-rule="evenodd" clip-rule="evenodd" d="M56.6156 8.15137C76.4164 8.15137 92.4866 24.2771 92.4866 44.0662L92.4728 45.071C91.9408 64.432 76.0808 79.9811 56.6156 79.9811C36.8507 79.9811 20.7446 63.8912 20.7446 44.0662C20.7446 24.2771 36.8507 8.15137 56.6156 8.15137ZM42.2672 51.1774C43.3434 52.2189 45.0293 52.2189 46.0696 51.1415L56.6156 40.5466L67.1617 51.1415C68.202 52.2189 69.9238 52.2189 70.964 51.1774C72.0402 50.0999 72.0402 48.4119 70.964 47.3704L58.5168 34.8361C58.0146 34.3333 57.333 34.046 56.6156 34.046C55.8982 34.046 55.2167 34.3333 54.7145 34.8361L42.2672 47.3704C41.7292 47.8732 41.4781 48.5556 41.4781 49.238C41.4781 49.9563 41.7292 50.6387 42.2672 51.1774Z" fill="#AB0006"/>
</svg>
